<svg id="logo" xmlns="http://www.w3.org/2000/svg" viewBox="0 0 53.88 124.04"><defs><style>.cls-1{fill:#ffffff;}</style></defs><title>stanford_up_logo</title><path class="cls-1" d="M24.27,6h-6V0h6Zm0,3h-6v6h6Zm0,36.71h-6v6h6Zm0,9.05h-6v6h6Zm-9.13-9.05h-6v6h6ZM6,45.69H0v6H6Zm9.14,9.05h-6v6h6Zm9.13,18h-6v6h6Zm0,9.18h-6v6h6ZM15.14,72.7h-6v6h6ZM6,72.7H0v6H6Zm9.14,9.18h-6v6h6ZM24.27,18h-6v6h6ZM35.82,54.74h-6v6h6Zm0,9h-6v6h6Zm0,9h-6v6h6Zm9-9h-6v6h6Zm9,0h-6v6h6Zm0,18.16h-6v6h6Zm-9-9.18h-6v6h6ZM35.82,18h-6v6h6Zm0,18.73h-6v6h6ZM28.06,9H25.9V124h2.16Z"/></svg>